<svg width="35" height="35" viewBox="0 0 35 35" fill="none" xmlns="http://www.w3.org/2000/svg">
<path d="M33.542 5.83301V14.583H24.792" stroke="white" stroke-width="1.5" stroke-linecap="round" stroke-linejoin="round"/>
<path d="M29.8812 21.8751C28.9333 24.5583 27.1389 26.8607 24.7686 28.4354C22.3982 30.0101 19.5802 30.7717 16.7394 30.6055C13.8985 30.4393 11.1885 29.3543 9.01796 27.514C6.84738 25.6737 5.33373 23.1777 4.7051 20.4023C4.07648 17.6268 4.36693 14.7222 5.5327 12.1262C6.69847 9.53024 8.6764 7.38344 11.1684 6.00937C13.6604 4.63529 16.5316 4.10837 19.3491 4.50802C22.1666 4.90766 24.778 6.21222 26.7896 8.2251L33.5417 14.5834" stroke="white" stroke-width="1.5" stroke-linecap="round" stroke-linejoin="round"/>
<path d="M13.2483 22V14.8527L11.69 15.7958V14.6515L13.2483 13.72H14.289V22H13.2483ZM19.2714 22.1725C18.7347 22.1725 18.2555 22.0518 17.8339 21.8103C17.416 21.5649 17.0845 21.2333 16.8391 20.8155C16.5976 20.3938 16.4769 19.9147 16.4769 19.378V16.342C16.4769 15.8053 16.5976 15.3262 16.8391 14.9045C17.0845 14.4828 17.416 14.1512 17.8339 13.9097C18.2555 13.6682 18.7347 13.5475 19.2714 13.5475C19.808 13.5475 20.2872 13.6682 20.7089 13.9097C21.1305 14.1512 21.4621 14.4828 21.7036 14.9045C21.9451 15.3262 22.0659 15.8053 22.0659 16.342V19.378C22.0659 19.9147 21.9451 20.3938 21.7036 20.8155C21.4621 21.2333 21.1305 21.5649 20.7089 21.8103C20.2872 22.0518 19.808 22.1725 19.2714 22.1725ZM19.2714 21.1892C19.5972 21.1892 19.8924 21.1107 20.1569 20.9535C20.4214 20.7963 20.6322 20.5855 20.7894 20.321C20.9465 20.0527 21.0251 19.7575 21.0251 19.4355V16.2787C21.0251 15.9529 20.9465 15.6577 20.7894 15.3932C20.6322 15.1287 20.4214 14.9179 20.1569 14.7607C19.8924 14.6036 19.5972 14.525 19.2714 14.525C18.9494 14.525 18.6542 14.6036 18.3859 14.7607C18.1214 14.9179 17.9105 15.1287 17.7534 15.3932C17.5962 15.6577 17.5176 15.9529 17.5176 16.2787V19.4355C17.5176 19.7575 17.5962 20.0527 17.7534 20.321C17.9105 20.5855 18.1214 20.7963 18.3859 20.9535C18.6542 21.1107 18.9494 21.1892 19.2714 21.1892Z" fill="white"/>
</svg>
