<svg width="35" height="35" viewBox="0 0 35 35" fill="none" xmlns="http://www.w3.org/2000/svg">
<path d="M1.45801 5.83301V14.583H10.208" stroke="white" stroke-width="1.5" stroke-linecap="round" stroke-linejoin="round"/>
<path d="M5.11842 21.8751C6.064 24.559 7.85621 26.8628 10.225 28.4396C12.5938 30.0163 15.4109 30.7805 18.2518 30.617C21.0926 30.4535 23.8034 29.3712 25.9757 27.533C28.148 25.6949 29.664 23.2007 30.2954 20.426C30.9268 17.6514 30.6394 14.7467 29.4764 12.1496C28.3134 9.55251 26.3379 7.40373 23.8476 6.02702C21.3572 4.65031 18.4868 4.12024 15.669 4.5167C12.8512 4.91315 10.2385 6.21464 8.22467 8.22507L1.45801 14.5834" stroke="white" stroke-width="1.5" stroke-linecap="round" stroke-linejoin="round"/>
<path d="M13.2483 22V14.8527L11.69 15.7958V14.6515L13.2483 13.72H14.289V22H13.2483ZM19.2714 22.1725C18.7347 22.1725 18.2555 22.0518 17.8339 21.8103C17.416 21.5649 17.0845 21.2333 16.8391 20.8155C16.5976 20.3938 16.4769 19.9147 16.4769 19.378V16.342C16.4769 15.8053 16.5976 15.3262 16.8391 14.9045C17.0845 14.4828 17.416 14.1512 17.8339 13.9097C18.2555 13.6682 18.7347 13.5475 19.2714 13.5475C19.808 13.5475 20.2872 13.6682 20.7089 13.9097C21.1305 14.1512 21.4621 14.4828 21.7036 14.9045C21.9451 15.3262 22.0659 15.8053 22.0659 16.342V19.378C22.0659 19.9147 21.9451 20.3938 21.7036 20.8155C21.4621 21.2333 21.1305 21.5649 20.7089 21.8103C20.2872 22.0518 19.808 22.1725 19.2714 22.1725ZM19.2714 21.1892C19.5972 21.1892 19.8924 21.1107 20.1569 20.9535C20.4214 20.7963 20.6322 20.5855 20.7894 20.321C20.9465 20.0527 21.0251 19.7575 21.0251 19.4355V16.2787C21.0251 15.9529 20.9465 15.6577 20.7894 15.3932C20.6322 15.1287 20.4214 14.9179 20.1569 14.7607C19.8924 14.6036 19.5972 14.525 19.2714 14.525C18.9494 14.525 18.6542 14.6036 18.3859 14.7607C18.1214 14.9179 17.9105 15.1287 17.7534 15.3932C17.5962 15.6577 17.5176 15.9529 17.5176 16.2787V19.4355C17.5176 19.7575 17.5962 20.0527 17.7534 20.321C17.9105 20.5855 18.1214 20.7963 18.3859 20.9535C18.6542 21.1107 18.9494 21.1892 19.2714 21.1892Z" fill="white"/>
</svg>
