<svg width="132" height="132" viewBox="0 0 132 132" fill="none" xmlns="http://www.w3.org/2000/svg">
<g filter="url(#filter0_d_411_6527)">
<rect x="40" y="26" width="52" height="52" rx="10" fill="white"/>
<path d="M76.1895 52.9943C76.1895 52.2088 76.1187 51.4571 75.9873 50.7344H65.8203V54.8752L71.6757 54.8765C71.4382 56.2543 70.6739 57.4288 69.5028 58.2117V60.8983H72.9883C75.0234 59.0274 76.1895 56.2618 76.1895 52.9943Z" fill="#4285F4"/>
<path d="M69.5034 58.2115C68.5332 58.8615 67.2838 59.2417 65.8222 59.2417C62.9987 59.2417 60.6035 57.3519 59.7457 54.8047H56.1504V57.5753C57.9316 61.0862 61.5927 63.4955 65.8222 63.4955C68.7455 63.4955 71.2013 62.5406 72.9889 60.8968L69.5034 58.2115Z" fill="#34A853"/>
<path d="M59.4076 52.7491C59.4076 52.0339 59.5277 51.3425 59.7462 50.6925V47.9219H56.1509C55.4144 49.3737 55 51.0125 55 52.7491C55 54.4858 55.4156 56.1245 56.1509 57.5763L59.7462 54.8057C59.5277 54.1557 59.4076 53.4643 59.4076 52.7491Z" fill="#FABB05"/>
<path d="M65.8222 46.2538C67.4177 46.2538 68.8465 46.7996 69.9747 47.8662L73.0634 44.8007C71.1874 43.0653 68.7417 42 65.8222 42C61.5939 42 57.9316 44.4092 56.1504 47.9202L59.7457 50.6908C60.6035 48.1435 62.9987 46.2538 65.8222 46.2538Z" fill="#E94235"/>
</g>
<defs>
<filter id="filter0_d_411_6527" x="0" y="0" width="132" height="132" filterUnits="userSpaceOnUse" color-interpolation-filters="sRGB">
<feFlood flood-opacity="0" result="BackgroundImageFix"/>
<feColorMatrix in="SourceAlpha" type="matrix" values="0 0 0 0 0 0 0 0 0 0 0 0 0 0 0 0 0 0 127 0" result="hardAlpha"/>
<feOffset dy="14"/>
<feGaussianBlur stdDeviation="20"/>
<feComposite in2="hardAlpha" operator="out"/>
<feColorMatrix type="matrix" values="0 0 0 0 0.372549 0 0 0 0 0.654902 0 0 0 0 0.839216 0 0 0 0.35 0"/>
<feBlend mode="normal" in2="BackgroundImageFix" result="effect1_dropShadow_411_6527"/>
<feBlend mode="normal" in="SourceGraphic" in2="effect1_dropShadow_411_6527" result="shape"/>
</filter>
</defs>
</svg>
