<svg width="20" height="20" viewBox="0 0 20 20" fill="none" xmlns="http://www.w3.org/2000/svg">
<path d="M16.6571 20H3.34292C1.50308 20 0 18.4969 0 16.6571V3.34292C0 1.50308 1.50308 0 3.34292 0H16.6571C18.4969 0 20 1.50308 20 3.34292V16.6571C20 18.5051 18.5051 20 16.6571 20Z" fill="white"/>
<path d="M10.0046 15.138C8.6329 15.138 7.34337 14.6042 6.37417 13.635C5.40497 12.6658 4.87109 11.3762 4.87109 10.0046C4.87109 8.6329 5.40497 7.34337 6.37417 6.37417C7.34337 5.40497 8.6329 4.87109 10.0046 4.87109C11.3762 4.87109 12.6658 5.40497 13.635 6.37417C14.6042 7.34337 15.138 8.6329 15.138 10.0046C15.138 11.3762 14.6042 12.6658 13.635 13.635C12.6575 14.6042 11.3762 15.138 10.0046 15.138ZM10.0046 5.9635C7.77869 5.9635 5.9635 7.77048 5.9635 10.0046C5.9635 12.2304 7.77048 14.0456 10.0046 14.0456C12.2304 14.0456 14.0456 12.2386 14.0456 10.0046C14.0374 7.77869 12.2304 5.9635 10.0046 5.9635Z" fill="#22618D"/>
<path d="M16.138 4.70177C16.6824 4.70177 17.1236 4.26048 17.1236 3.71612C17.1236 3.17176 16.6824 2.73047 16.138 2.73047C15.5936 2.73047 15.1523 3.17176 15.1523 3.71612C15.1523 4.26048 15.5936 4.70177 16.138 4.70177Z" fill="#22618D"/>
</svg>
