<svg width="22" height="22" viewBox="0 0 22 22" fill="none" xmlns="http://www.w3.org/2000/svg">
<circle cx="11" cy="11" r="11" fill="#22618D"/>
<path fill-rule="evenodd" clip-rule="evenodd" d="M22 11C22 17.0751 17.0751 22 11 22C4.92487 22 0 17.0751 0 11C0 4.92487 4.92487 0 11 0C17.0751 0 22 4.92487 22 11ZM11.3942 8.12069C10.3243 8.5657 8.18595 9.48677 4.97922 10.8839C4.4585 11.091 4.18573 11.2935 4.16089 11.4916C4.11893 11.8264 4.53814 11.9582 5.10901 12.1377C5.18666 12.1621 5.26712 12.1874 5.3496 12.2142C5.91124 12.3968 6.66675 12.6104 7.0595 12.6189C7.41577 12.6266 7.81341 12.4797 8.25241 12.1782C11.2486 10.1558 12.7952 9.1335 12.8923 9.11146C12.9608 9.09591 13.0557 9.07636 13.12 9.13353C13.1843 9.1907 13.178 9.29896 13.1712 9.32801C13.1297 9.50505 11.4841 11.0349 10.6325 11.8266C10.367 12.0735 10.1787 12.2485 10.1402 12.2885C10.054 12.3781 9.9661 12.4628 9.88164 12.5442C9.35986 13.0472 8.96857 13.4244 9.9033 14.0404C10.3525 14.3364 10.7119 14.5812 11.0705 14.8254C11.4621 15.0921 11.8527 15.3581 12.3581 15.6894C12.4869 15.7738 12.6099 15.8614 12.7296 15.9468C13.1854 16.2717 13.5948 16.5636 14.1007 16.5171C14.3946 16.49 14.6982 16.2137 14.8524 15.3893C15.2169 13.4412 15.9331 9.22025 16.0987 7.48089C16.1132 7.3285 16.0949 7.13347 16.0803 7.04786C16.0656 6.96225 16.035 6.84027 15.9237 6.74997C15.7919 6.64303 15.5885 6.62047 15.4975 6.622C15.0838 6.62937 14.449 6.85008 11.3942 8.12069Z" fill="white"/>
</svg>
