<svg width="132" height="132" viewBox="0 0 132 132" fill="none" xmlns="http://www.w3.org/2000/svg">
<g filter="url(#filter0_d_411_6528)">
<rect x="40" y="26" width="52" height="52" rx="10" fill="white"/>
<path d="M66.9825 59C59.466 59 55.1786 53.7447 55 45H58.7651C58.8888 51.4184 61.6646 54.1371 63.8632 54.6977V45H67.4085V50.5355C69.5796 50.2973 71.8607 47.7748 72.6302 45H76.1755C75.8855 46.4391 75.3075 47.8017 74.4776 49.0025C73.6477 50.2033 72.5837 51.2166 71.3523 51.979C72.7269 52.6756 73.941 53.6615 74.9145 54.8717C75.888 56.082 76.5988 57.489 77 59H73.0974C72.7373 57.6876 72.0054 56.5128 70.9934 55.6228C69.9814 54.7328 68.7343 54.1673 67.4085 53.997V59H66.9825Z" fill="#0077FF"/>
</g>
<defs>
<filter id="filter0_d_411_6528" x="0" y="0" width="132" height="132" filterUnits="userSpaceOnUse" color-interpolation-filters="sRGB">
<feFlood flood-opacity="0" result="BackgroundImageFix"/>
<feColorMatrix in="SourceAlpha" type="matrix" values="0 0 0 0 0 0 0 0 0 0 0 0 0 0 0 0 0 0 127 0" result="hardAlpha"/>
<feOffset dy="14"/>
<feGaussianBlur stdDeviation="20"/>
<feComposite in2="hardAlpha" operator="out"/>
<feColorMatrix type="matrix" values="0 0 0 0 0.372549 0 0 0 0 0.654902 0 0 0 0 0.839216 0 0 0 0.35 0"/>
<feBlend mode="normal" in2="BackgroundImageFix" result="effect1_dropShadow_411_6528"/>
<feBlend mode="normal" in="SourceGraphic" in2="effect1_dropShadow_411_6528" result="shape"/>
</filter>
</defs>
</svg>
